{"title":"Puss in Boots 2011 TS XviD-MiSTERE","uid":6781505,"size":1723803367,"categoryP":"video","categoryS":"movies","magnet":"?xt=urn:btih:e92f0cb012644218f3c2e9a28c8da7c9408d60e3&amp;dn=Puss+in+Boots+2011+TS+XviD-MiSTERE&amp;tr=udp%3A%2F%2Ftracker.openbittorrent.com%3A80&amp;tr=udp%3A%2F%2Fopen.demonii.com%3A1337&amp;tr=udp%3A%2F%2Ftracker.coppersurfer.tk%3A6969&amp;tr=udp%3A%2F%2Fexodus.desync.com%3A6969","seeders":0,"leechers":0,"uploader":"crazy-torrent","files":2,"time":1319919581,"description":"CRAZY-TORRENT..COM\n   |  | |  | |  | \n   |/\\| |/\\| |/\\|,\n   ~  ~ ~  ~ ~  ~~\n                  \n   _, __,  _, ___,\n  / ` |_) /_\\ ` / \n  \\ , | \\ | |  /  \n   ~  ~ ~ ~ ~ ~~~ \n                  \n , _    ___  _, __,\n \\ |     |  / \\ |_)\n  \\| ~~  |  \\ / | \\\n   )     ~   ~  ~ ~\n  ~'               \n  __, __, _, _ ___ \n  |_) |_  |\\ |  |  \n  | \\ |   | \\|  | ,\n  ~ ~ ~~~ ~  ~  ~ ~\n                   \n     _,  _, _, _\n    / ` / \\ |\\/|\n    \\ , \\ / |  |\n     ~   ~  ~  ~\n\n\n &lt;a href=&quot;\nhttp://www.imdb.com/title/tt0448694/&quot; rel=&quot;nofollow&quot; target=&quot;_NEW&quot;&gt;\nhttp://www.imdb.com/title/tt0448694/&lt;/a&gt;\n\nVideo\nID : 0\nFormat : MPEG-4 Visual\nFormat profile : Advanced Simple@L5\nFormat settings, BVOP : 2\nFormat settings, QPel : No\nFormat settings, GMC : No warppoints\nFormat settings, Matrix : Default (H.263)\nMuxing mode : Packed bitstream\nCodec ID : XVID\nCodec ID/Hint : XviD\nDuration : 1h 20mn\nBit rate : 2 706 Kbps\nWidth : 720 pixels\nHeight : 304 pixels\nDisplay aspect ratio : 2.35:1\nFrame rate : 25.000 fps\nColor space : YUV\nChroma subsampling : 4:2:0\nBit depth : 8 bits\nScan type : Progressive\nCompression mode : Lossy\nBits/(Pixel*Frame) : 0.494\nStream size : 1.53 GiB (95%)\nWriting library : XviD 64\n\nAudio\nID : 1\nFormat : MPEG Audio\nFormat version : Version 1\nFormat profile : Layer 3\nMode : Joint stereo\nMode extension : MS Stereo\nCodec ID : 55\nCodec ID/Hint : MP3\nDuration : 1h 20mn\nBit rate mode : Constant\nBit rate : 128 Kbps\nChannel(s) : 2 channels\nSampling rate : 44.1 KHz\nCompression mode : Lossy\nStream size : 74.0 MiB (5%)\nAlignment : Split accross interleaves\nInterleave, duration : 40 ms (1.00 video frame) \nCRAZY-TORRENT..COM","torrent":{"xt":"urn:btih:e92f0cb012644218f3c2e9a28c8da7c9408d60e3","amp;dn":"Puss+in+Boots+2011+TS+XviD-MiSTERE","amp;tr":["udp%3A%2F%2Ftracker.openbittorrent.com%3A80","udp%3A%2F%2Fopen.demonii.com%3A1337","udp%3A%2F%2Ftracker.coppersurfer.tk%3A6969","udp%3A%2F%2Fexodus.desync.com%3A6969"],"infoHash":"e92f0cb012644218f3c2e9a28c8da7c9408d60e3","infoHashBuffer":{"type":"Buffer","data":[233,47,12,176,18,100,66,24,243,194,233,162,140,141,167,201,64,141,96,227]},"announce":[],"urlList":[]}}